# xmcd CD database file
#
# Track frame offsets:
#	150
#	44645
#	71520
#	107688
#	137980
#	172313
#	213195
#	244735
#	281165
#
# Disc length: 4351 seconds
#
# Revision: 0
# Processed by: cddbd v1.5.1PL0 Copyright (c) Steve Scherf et al.
# Submitted via: CDex 1.51
#
DISCID=9010fd09
DTITLE=Eddy Louiss and Michel Petrucciani - Conference de Presse - L'Integrale
DYEAR=1994
DGENRE=Jazz
TTITLE0=Autumn Leaves
TTITLE1=Hub Art
TTITLE2=Caravan
TTITLE3=Naissance
TTITLE4=Rachid
TTITLE5=Caraibes
TTITLE6=Au P'tit Jour
TTITLE7=Summertime
TTITLE8=So What
EXTD=YEAR: 1994
EXTT0=
EXTT1=
EXTT2=
EXTT3=
EXTT4=
EXTT5=
EXTT6=
EXTT7=
EXTT8=
PLAYORDER=
